# xmcd
#
# Track frame offsets:
#	150
#	16057
#	28802
#	44720
#	58290
#	71330
#	85265
#	98523
#	110423
#	124745
#	139048
#
# Disc length: 2020 seconds
# Revision: 0
# Processed by: cddbd v1.5.2PL0 Copyright (c) Steve Scherf et al.
# Submitted via: dBpowerAMP V12.0
#
DISCID=9207e20b
DTITLE=Bessie Smith - Nobody's Blues But Mine
DYEAR=2008
DGENRE=Blues
TTITLE0=My Man Blues
TTITLE1=I Need A Little Sugar In My Bowl
TTITLE2=Nobody In Town Can Bake A Sweet Jelly Roll Like Mine
TTITLE3=Nobody Knows You When You're Down And Out
TTITLE4=Nobody's Blues But Mine
TTITLE5=St Louis Blues
TTITLE6=Standin' In The Rain
TTITLE7=Take Me For A Buggy Ride
TTITLE8=Thinking Blues
TTITLE9=Young Woman's Blues
TTITLE10=You've Got To Give Me Some
EXTD=
EXTT0=
EXTT1=
EXTT2=
EXTT3=
EXTT4=
EXTT5=
EXTT6=
EXTT7=
EXTT8=
EXTT9=
EXTT10=
PLAYORDER=
